<?xml version="1.0" standalone="no"?>
<!DOCTYPE svg PUBLIC "-//W3C//DTD SVG 20010904//EN"
 "http://www.w3.org/TR/2001/REC-SVG-20010904/DTD/svg10.dtd">
<svg version="1.0" xmlns="http://www.w3.org/2000/svg"
 width="512.000000pt" height="512.000000pt" viewBox="0 0 512.000000 512.000000"
 preserveAspectRatio="xMidYMid meet">
<metadata>
Created by potrace 1.11, written by Peter Selinger 2001-2013
</metadata>
<g transform="translate(0.000000,512.000000) scale(0.100000,-0.100000)"
fill="#000000" stroke="none">
<path d="M2160 3640 l0 -130 135 0 135 0 0 -85 0 -84 -37 -10 c-21 -6 -44 -11
-52 -11 -26 0 -189 -57 -206 -72 -21 -19 -42 -5 -70 48 -16 30 -34 59 -40 64
-8 6 -197 -92 -225 -117 -3 -3 14 -40 37 -82 l42 -78 -25 -24 c-70 -65 -180
-233 -222 -339 -51 -129 -65 -207 -66 -365 -1 -191 17 -273 95 -443 77 -168
233 -335 402 -431 66 -38 198 -89 278 -108 91 -21 327 -23 409 -4 415 97 699
383 786 791 16 72 19 311 5 356 -5 16 -14 54 -21 84 -13 55 -20 74 -68 180
-26 58 -96 168 -133 210 -12 14 -38 42 -57 62 -26 28 -33 40 -25 50 6 7 26 39
43 72 27 49 30 60 19 71 -22 22 -203 123 -211 119 -4 -3 -22 -31 -40 -64 -18
-33 -36 -60 -40 -60 -5 0 -27 9 -51 19 -52 24 -165 61 -186 61 -9 0 -33 5 -54
11 l-38 10 3 82 3 82 138 3 137 3 0 129 0 130 -400 0 -400 0 0 -130z m561
-575 c40 -9 116 -36 168 -62 82 -40 109 -60 186 -137 87 -88 112 -126 168
-256 33 -77 41 -120 43 -253 2 -153 -6 -192 -63 -317 -98 -212 -248 -337 -493
-411 -59 -18 -279 -18 -345 -1 -261 71 -448 246 -532 500 -21 65 -25 97 -26
207 -2 158 9 209 74 340 84 170 217 291 404 366 99 39 290 50 416 24z"/>
</g>
</svg>
