<?xml version="1.0" standalone="no"?>
<!DOCTYPE svg PUBLIC "-//W3C//DTD SVG 20010904//EN"
 "http://www.w3.org/TR/2001/REC-SVG-20010904/DTD/svg10.dtd">
<svg version="1.0" xmlns="http://www.w3.org/2000/svg"
 width="512.000000pt" height="512.000000pt" viewBox="0 0 512.000000 512.000000"
 preserveAspectRatio="xMidYMid meet">
<metadata>
Created by potrace 1.11, written by Peter Selinger 2001-2013
</metadata>
<g transform="translate(0.000000,512.000000) scale(0.100000,-0.100000)"
fill="#000000" stroke="none">
<path d="M1731 5086 c2 -19 0 -38 -3 -42 -4 -4 -2 -16 4 -27 7 -14 7 -22 1
-24 -6 -2 -7 -19 -3 -44 4 -21 4 -41 1 -44 -4 -2 -4 -29 -1 -60 3 -31 4 -58 1
-60 -3 -1 -5 -59 -3 -127 l3 -125 242 0 c133 -1 256 -2 273 -2 l30 -1 -1 -100
c0 -55 3 -100 8 -100 5 0 3 -8 -4 -17 -12 -14 -12 -16 0 -8 11 6 12 5 5 -6 -5
-8 -9 -34 -9 -59 0 -44 0 -44 -36 -45 -20 0 -43 -6 -52 -14 -13 -10 -17 -10
-17 -1 0 9 -4 9 -12 2 -7 -5 -29 -9 -48 -7 -19 1 -40 -4 -47 -11 -7 -7 -21
-11 -30 -10 -10 2 -21 -1 -25 -7 -3 -6 -27 -12 -53 -13 -25 -1 -52 -7 -58 -12
-12 -10 -18 -12 -38 -12 -5 0 -7 -5 -3 -11 5 -9 -1 -10 -20 -5 -16 4 -26 2
-26 -4 0 -6 -4 -8 -10 -5 -5 3 -10 3 -10 -2 0 -12 -50 -33 -77 -33 -13 0 -23
-4 -23 -10 0 -5 -8 -10 -18 -10 -10 0 -24 -9 -32 -20 -17 -23 -42 -27 -34 -5
4 8 -1 17 -10 21 -11 4 -14 13 -11 25 4 13 1 19 -8 19 -12 0 -52 65 -49 80 0
3 -6 13 -15 22 -8 10 -13 24 -9 33 3 9 2 14 -3 11 -12 -8 -34 20 -27 33 9 13
-16 20 -36 9 -13 -6 -18 -5 -18 4 0 9 -3 9 -11 1 -6 -6 -17 -9 -23 -7 -7 3
-18 -7 -26 -21 -8 -14 -16 -21 -20 -15 -4 7 -13 3 -24 -9 -10 -11 -24 -17 -31
-15 -7 3 -15 -2 -18 -10 -4 -9 -12 -13 -19 -11 -7 3 -22 -6 -32 -20 -10 -14
-27 -25 -37 -25 -10 0 -21 -5 -24 -10 -4 -6 -10 -8 -15 -5 -4 3 -11 -2 -14
-11 -4 -10 -14 -14 -25 -11 -13 3 -23 -3 -32 -19 -7 -13 -21 -24 -31 -24 -10
0 -18 -5 -18 -11 0 -5 -3 -8 -8 -5 -4 2 -14 -1 -23 -7 -19 -15 -21 -118 -1
-125 7 -2 10 -8 6 -13 -3 -5 2 -16 11 -25 9 -9 14 -21 13 -26 -2 -6 9 -23 25
-39 15 -16 26 -33 22 -39 -3 -5 2 -10 11 -10 14 0 15 -3 7 -11 -9 -9 -6 -17
13 -31 13 -11 24 -26 24 -34 0 -8 -36 -50 -80 -94 -44 -43 -81 -84 -82 -91 -2
-6 -18 -27 -35 -47 -18 -19 -33 -39 -33 -45 0 -6 -19 -29 -43 -52 -24 -23 -42
-46 -39 -53 2 -7 -3 -15 -12 -18 -9 -3 -13 -10 -10 -15 3 -5 -2 -9 -11 -9 -11
0 -15 -5 -11 -15 3 -9 -1 -18 -10 -22 -8 -3 -13 -12 -10 -19 3 -8 1 -14 -5
-14 -6 0 -7 -4 -4 -10 3 -5 1 -10 -5 -10 -6 0 -8 -5 -5 -10 3 -6 -1 -13 -10
-16 -10 -4 -15 -14 -12 -25 3 -11 1 -19 -3 -19 -5 0 -18 -20 -28 -44 -11 -24
-25 -46 -30 -50 -6 -4 -9 -13 -6 -21 4 -9 -1 -18 -11 -21 -9 -4 -14 -13 -11
-21 3 -7 -1 -16 -9 -19 -7 -3 -11 -12 -9 -19 3 -7 0 -24 -7 -37 -7 -13 -12
-29 -10 -37 1 -7 -2 -10 -8 -6 -6 3 -11 3 -12 -2 -1 -4 -2 -25 -4 -46 -2 -21
-8 -43 -13 -50 -5 -7 -8 -20 -7 -29 2 -9 -3 -19 -10 -22 -9 -3 -13 -20 -12
-48 1 -24 -4 -49 -11 -57 -7 -7 -12 -30 -11 -50 3 -42 -7 -64 -24 -55 -8 5 -9
3 -2 -4 13 -14 7 -255 -6 -247 -5 4 -9 -34 -9 -95 0 -65 4 -99 10 -95 11 7 11
7 12 -65 0 -28 -2 -53 -5 -56 -3 -3 -2 -17 3 -30 6 -16 6 -24 -1 -24 -6 0 -7
-6 -2 -12 4 -7 6 -24 4 -37 -1 -13 2 -27 9 -31 6 -4 12 -22 13 -41 1 -19 6
-37 11 -41 5 -3 9 -29 9 -57 -1 -36 3 -51 13 -51 8 0 11 -8 9 -22 -3 -12 1
-28 8 -36 6 -8 12 -31 12 -51 0 -22 5 -35 12 -34 7 2 10 -6 8 -17 -2 -12 2
-20 10 -20 7 0 12 -8 10 -17 -1 -10 3 -24 9 -32 9 -12 8 -13 -4 -6 -11 6 -10
3 2 -12 10 -11 18 -25 18 -32 0 -7 4 -9 10 -6 6 3 7 -1 4 -9 -4 -10 -1 -16 7
-16 10 0 10 -3 1 -12 -8 -8 -6 -17 8 -36 11 -13 17 -28 14 -33 -3 -5 3 -9 12
-9 13 0 15 -3 7 -11 -9 -9 -4 -18 18 -36 23 -20 27 -28 18 -39 -9 -11 -9 -14
0 -14 7 0 10 -3 8 -8 -4 -8 29 -43 35 -37 2 2 5 -5 5 -16 1 -11 12 -29 24 -40
12 -10 19 -22 16 -25 -7 -8 17 -34 32 -34 5 0 8 -9 6 -20 -2 -12 4 -24 16 -31
12 -6 18 -13 15 -16 -3 -3 0 -11 7 -19 30 -33 35 -42 30 -48 -4 -3 -1 -6 5 -6
16 0 49 -34 57 -59 3 -12 15 -21 25 -21 13 0 18 -6 15 -20 -2 -11 -1 -19 3
-19 28 4 44 -3 38 -16 -4 -10 2 -19 17 -24 12 -5 25 -7 28 -5 3 2 5 -7 4 -21
-2 -15 1 -22 9 -19 7 3 43 -25 79 -61 40 -40 71 -63 78 -59 8 4 9 3 5 -4 -4
-7 -1 -12 8 -12 8 0 21 -9 29 -20 8 -11 17 -17 20 -13 4 3 22 -10 40 -29 18
-19 38 -33 45 -30 6 2 15 -3 18 -12 3 -9 10 -13 15 -10 5 3 16 -2 25 -10 9 -9
20 -14 25 -10 5 3 12 -2 15 -10 3 -9 12 -16 20 -16 8 0 14 -7 14 -16 0 -14 3
-14 15 -4 9 8 15 8 15 2 0 -12 55 -42 77 -42 7 0 13 -4 13 -10 0 -5 13 -10 29
-10 17 0 31 -6 35 -16 3 -8 11 -12 17 -8 6 3 15 1 19 -6 4 -7 19 -12 34 -12
14 0 26 -4 26 -9 0 -5 9 -9 19 -9 11 0 21 -5 23 -11 2 -6 21 -12 43 -12 22 -1
45 -9 52 -17 7 -8 13 -11 13 -6 0 5 8 2 18 -6 9 -8 35 -14 57 -14 22 1 46 -5
53 -12 8 -7 18 -10 23 -7 5 4 9 1 9 -5 0 -8 6 -8 20 0 15 8 20 8 20 -1 0 -8 4
-8 15 1 12 10 15 9 15 -4 0 -13 5 -16 20 -11 11 3 20 2 20 -3 0 -5 7 -9 15 -9
8 0 15 5 15 10 0 5 6 4 13 -2 8 -6 16 -8 20 -5 8 8 57 12 57 4 0 -4 7 -7 15
-7 8 0 15 4 15 8 0 5 10 5 23 0 12 -4 28 -6 35 -4 6 3 12 0 12 -6 0 -7 34 -11
96 -11 60 0 93 4 89 10 -3 6 4 9 17 9 13 -1 31 2 41 6 9 4 17 3 17 -2 0 -5 7
-10 15 -10 8 0 15 4 15 8 0 5 11 5 23 0 13 -5 30 -5 37 -1 9 5 20 4 27 -2 10
-8 13 -7 13 3 0 11 2 11 10 -1 8 -12 10 -12 10 -1 0 8 3 11 6 8 4 -3 16 -1 27
4 25 14 77 18 77 6 0 -4 5 -5 10 -2 6 4 8 11 5 16 -4 5 5 10 19 10 14 1 36 2
49 2 12 0 25 7 30 13 4 8 22 12 42 10 19 -2 36 1 38 8 3 7 20 11 38 11 22 0
41 7 54 21 12 13 33 21 54 22 19 0 37 6 41 13 4 6 13 8 19 5 6 -4 14 0 17 8 3
9 10 14 14 11 4 -3 19 5 34 16 14 11 26 17 26 14 0 -4 7 -2 15 5 8 6 20 8 26
4 7 -4 9 -3 6 3 -8 12 20 26 33 18 5 -3 11 4 15 14 4 12 12 18 21 14 7 -3 14
0 14 6 0 6 7 11 15 11 8 0 15 3 15 8 0 8 61 38 73 34 4 -1 7 5 7 13 0 8 6 12
14 9 7 -3 34 15 60 40 26 26 52 46 58 46 6 0 28 18 49 40 21 22 44 40 50 40 7
0 10 3 6 6 -11 11 25 42 45 36 10 -2 18 -1 16 4 -4 11 44 60 54 57 5 -2 8 2 8
7 0 6 16 25 35 42 20 17 33 33 31 36 -9 9 14 42 30 42 8 0 13 4 10 8 -3 5 6
16 20 26 13 11 24 26 24 35 0 9 18 32 40 51 22 19 40 43 40 52 0 9 5 18 11 20
5 2 12 12 13 23 2 11 9 19 16 17 6 -1 9 2 5 8 -8 14 23 63 35 55 5 -3 7 3 5
14 -2 11 3 25 11 32 8 6 14 20 14 31 0 12 4 17 12 12 8 -5 9 -2 5 9 -3 10 -2
17 3 17 5 0 12 9 15 20 4 11 10 18 15 15 4 -3 10 2 13 9 3 8 1 16 -5 18 -6 2
-4 11 6 21 10 9 14 17 10 17 -3 0 -1 7 6 15 7 8 9 15 4 15 -5 0 -1 7 10 15 10
7 15 18 12 24 -4 6 4 30 17 53 13 24 23 56 22 71 -1 16 3 31 10 33 6 3 12 19
12 35 0 17 5 34 11 38 6 3 11 26 10 49 0 27 6 50 16 61 13 15 14 20 4 23 -10
4 -9 9 5 22 14 15 17 37 17 137 0 73 4 119 10 119 6 0 10 53 10 140 0 105 -3
140 -12 140 -10 0 -12 28 -10 116 2 82 -1 121 -10 131 -7 8 -11 30 -10 48 2
20 -2 34 -10 37 -9 4 -13 22 -12 57 1 28 -2 48 -7 45 -9 -5 -13 15 -11 49 1 9
-4 17 -12 17 -9 0 -13 10 -11 29 2 19 -3 32 -12 36 -9 3 -13 13 -10 25 3 11 1
18 -4 14 -5 -3 -10 1 -11 8 0 7 -2 18 -2 23 -1 6 -6 17 -11 25 -5 8 -10 17
-11 20 0 3 -6 18 -12 33 -7 16 -10 32 -7 37 3 5 -4 15 -15 23 -11 7 -17 17
-13 20 3 4 -1 7 -9 7 -11 0 -14 8 -12 31 2 18 0 28 -6 24 -6 -3 -10 3 -10 14
0 11 -7 26 -15 34 -8 8 -12 17 -9 20 3 2 -5 13 -18 23 -13 11 -23 26 -23 34 0
8 -10 25 -24 37 -15 13 -22 27 -18 38 4 9 3 14 -1 11 -10 -6 -42 29 -42 46 0
6 -19 29 -42 50 -23 21 -43 45 -44 53 -1 9 -44 56 -95 106 -85 83 -92 92 -76
104 14 10 15 14 5 18 -9 3 -7 10 9 21 14 11 20 22 16 33 -4 10 -2 14 5 9 6 -3
13 -2 17 4 3 5 1 10 -5 10 -6 0 -1 13 12 29 13 15 26 27 30 24 4 -2 5 8 2 21
-3 17 3 33 20 49 20 20 24 33 22 78 -1 48 -4 54 -24 57 -12 2 -22 8 -22 13 0
5 -9 9 -19 9 -10 0 -22 7 -25 15 -3 9 -19 21 -36 26 -16 6 -30 15 -30 21 0 5
-4 7 -9 3 -5 -3 -16 1 -24 9 -8 8 -17 12 -21 9 -3 -3 -16 5 -29 18 -13 13 -30
25 -37 27 -8 2 -18 8 -21 14 -4 6 -12 7 -18 4 -6 -4 -14 0 -17 9 -4 9 -13 14
-20 11 -7 -3 -22 7 -34 21 -11 14 -20 23 -20 20 0 -3 -13 -2 -30 3 -19 5 -30
5 -30 -1 0 -6 -9 -5 -21 2 -13 7 -19 7 -15 1 3 -6 2 -13 -4 -17 -6 -4 -8 -11
-4 -16 3 -6 -4 -21 -16 -34 -12 -12 -22 -30 -24 -38 -1 -8 -8 -23 -16 -33 -13
-15 -13 -16 -1 -9 9 5 7 -2 -5 -18 -10 -15 -24 -27 -31 -27 -6 0 -10 -8 -9
-17 2 -10 -6 -26 -19 -35 -20 -15 -25 -16 -35 -3 -7 8 -21 15 -31 15 -11 0
-19 5 -19 10 0 6 -12 10 -26 10 -15 0 -34 9 -43 19 -9 10 -32 20 -51 22 -19 2
-45 10 -57 17 -13 8 -23 10 -23 6 0 -5 -5 -1 -10 8 -6 10 -19 15 -32 13 -12
-3 -28 1 -37 8 -12 9 -13 9 -7 0 11 -19 -19 -16 -34 2 -7 9 -15 13 -18 11 -2
-3 -11 1 -18 9 -9 8 -33 12 -69 11 -38 -2 -55 1 -55 10 0 7 -13 11 -35 9 -23
-1 -39 3 -44 12 -4 8 -12 16 -17 16 -8 2 -14 265 -7 297 4 13 43 15 284 14
l280 -1 -3 288 c-2 186 1 291 7 293 6 3 -372 5 -838 5 l-849 1 3 -34z m674
-1446 c4 -6 63 -10 145 -10 82 0 141 4 145 10 3 6 15 10 26 10 10 0 19 -4 19
-10 0 -5 21 -10 48 -10 26 0 56 -7 66 -15 10 -8 23 -12 28 -9 5 3 16 0 24 -7
8 -7 39 -12 69 -11 39 0 55 -4 59 -14 3 -9 11 -12 17 -8 6 3 15 1 19 -5 4 -7
14 -13 22 -15 9 -1 23 -8 32 -15 9 -7 16 -10 16 -5 0 5 4 3 9 -4 4 -7 20 -14
35 -16 14 -1 32 -11 39 -21 8 -9 25 -19 39 -20 35 -4 68 -23 68 -39 0 -7 10
-12 23 -12 12 1 21 -4 20 -11 -2 -7 4 -10 12 -7 8 3 25 -5 38 -20 13 -14 26
-23 29 -20 3 3 31 -20 63 -50 31 -31 62 -56 68 -56 13 0 130 -121 123 -127 -7
-7 108 -121 117 -116 4 2 7 -7 7 -21 0 -14 5 -26 10 -26 6 0 10 -9 10 -20 0
-11 6 -23 14 -26 8 -3 12 -12 10 -19 -3 -7 4 -20 16 -28 12 -8 22 -24 23 -36
1 -11 7 -23 14 -25 7 -3 10 -12 7 -21 -4 -9 0 -15 9 -15 11 0 15 -8 12 -30 -3
-18 0 -28 5 -25 9 6 14 -10 13 -42 0 -7 4 -11 11 -10 6 1 10 -6 10 -15 -1 -10
4 -18 10 -18 6 0 12 -10 13 -22 1 -11 6 -24 11 -27 12 -8 23 -41 13 -41 -12 0
-6 -39 10 -58 8 -9 13 -24 11 -33 -1 -8 4 -28 12 -44 10 -18 12 -34 6 -45 -5
-9 -5 -22 0 -30 6 -9 5 -17 -3 -22 -8 -5 -8 -8 -1 -8 7 0 10 -14 7 -35 -2 -23
1 -37 9 -40 14 -6 17 -92 5 -112 -4 -7 -3 -14 2 -17 11 -7 5 -53 -13 -97 -8
-20 -13 -39 -9 -42 10 -10 10 -51 0 -64 -6 -8 -6 -13 0 -13 13 0 10 -40 -4
-48 -6 -4 -10 -23 -9 -42 1 -22 -6 -42 -17 -53 -12 -12 -15 -22 -9 -30 6 -8 0
-32 -18 -71 -15 -33 -25 -66 -22 -74 3 -10 1 -13 -6 -8 -11 6 -15 -5 -11 -31
0 -3 -6 -10 -15 -15 -8 -5 -13 -15 -10 -23 4 -10 0 -15 -11 -15 -12 0 -15 -5
-10 -20 4 -14 2 -20 -9 -20 -9 0 -13 -7 -11 -20 3 -13 -2 -20 -12 -20 -9 0
-13 -3 -10 -7 4 -3 2 -12 -4 -20 -6 -7 -8 -13 -4 -13 4 0 2 -7 -5 -15 -7 -8
-9 -15 -6 -15 4 0 -6 -13 -22 -28 -16 -15 -27 -33 -25 -39 2 -6 -4 -17 -15
-25 -18 -13 -37 -46 -34 -60 1 -5 -2 -8 -7 -8 -9 0 -64 -50 -68 -63 -2 -4 -3
-11 -3 -17 0 -5 -9 -10 -21 -10 -15 0 -19 -5 -15 -15 4 -10 -2 -19 -18 -25
-13 -5 -54 -39 -90 -76 -37 -38 -74 -69 -82 -70 -9 -1 -22 -11 -30 -21 -10
-14 -13 -15 -14 -3 0 10 -8 6 -24 -12 -13 -16 -28 -28 -33 -28 -5 0 -23 -11
-38 -24 -16 -14 -32 -23 -36 -21 -4 3 -12 -2 -19 -10 -7 -8 -16 -12 -21 -9 -5
3 -9 1 -9 -3 0 -8 -55 -35 -75 -37 -5 -1 -15 -7 -21 -15 -6 -8 -18 -12 -27 -8
-8 3 -21 -1 -27 -9 -7 -8 -21 -14 -31 -14 -11 0 -19 -4 -19 -10 0 -5 -18 -10
-40 -10 -22 0 -40 -5 -40 -11 0 -5 -4 -7 -10 -4 -5 3 -10 2 -10 -2 0 -5 -8 -9
-17 -10 -33 -3 -78 -16 -91 -26 -15 -12 -92 -16 -92 -4 0 4 -5 5 -11 1 -16
-10 -189 -11 -189 -1 0 5 -6 5 -12 0 -18 -10 -68 -11 -68 0 0 4 -6 5 -12 0
-18 -11 -68 -11 -68 0 0 6 -5 5 -12 0 -17 -13 -91 -8 -96 6 -2 6 -17 11 -32
11 -16 0 -32 5 -35 10 -3 6 -19 10 -36 10 -16 0 -29 5 -29 10 0 6 -18 10 -39
10 -30 0 -44 6 -55 22 -12 16 -24 22 -47 20 -19 -2 -40 4 -50 14 -11 10 -19
13 -19 9 0 -4 -9 0 -21 11 -12 10 -23 18 -25 17 -9 -5 -64 20 -64 29 0 5 -4 7
-9 4 -5 -3 -20 6 -35 21 -14 14 -29 23 -32 20 -3 -3 -24 12 -47 34 -29 28 -43
35 -49 26 -5 -8 -8 -7 -8 6 0 14 -13 23 -23 15 -7 -6 -237 233 -232 241 2 5
-7 12 -21 15 -14 4 -24 12 -21 19 2 6 -9 23 -23 37 -32 30 -80 115 -80 142 0
10 -5 16 -10 13 -9 -5 -15 15 -11 38 0 4 -4 7 -10 7 -17 0 -36 24 -33 43 1 9
-2 15 -7 11 -8 -4 -14 17 -10 39 0 4 -5 7 -13 7 -17 0 -26 32 -15 53 9 15 -12
47 -30 47 -3 0 -8 12 -9 27 -1 15 -9 37 -17 49 -11 17 -12 24 -2 27 9 3 9 7 0
17 -6 7 -9 19 -6 28 5 11 3 13 -7 7 -10 -6 -12 -4 -7 8 3 10 3 17 -2 17 -5 0
-7 12 -5 27 1 15 -2 31 -8 34 -15 9 -19 39 -7 39 6 0 7 6 3 12 -11 18 -12 48
-2 48 5 0 6 6 2 12 -12 19 -12 48 0 48 7 0 7 3 1 8 -12 8 -14 92 -2 92 5 0 5
6 1 12 -12 19 -12 48 0 48 7 0 7 3 1 8 -13 9 -13 102 0 102 5 0 4 5 -3 12 -7
7 -8 17 -2 28 5 9 5 22 1 29 -11 17 -2 53 12 44 6 -4 8 4 5 21 -4 18 0 30 11
36 9 5 12 10 7 10 -5 0 -3 7 4 15 7 9 8 15 2 15 -14 0 -2 42 17 58 12 10 13
15 3 18 -9 4 -7 12 7 32 10 15 20 32 22 37 2 6 7 9 10 8 4 -1 5 11 3 27 -2 17
1 30 7 30 6 0 7 5 4 10 -3 6 -1 10 5 10 6 0 8 5 5 10 -3 6 1 13 10 16 8 4 14
11 13 18 -3 14 25 76 34 76 5 0 8 8 8 19 0 10 11 26 24 36 13 10 22 24 19 32
-3 7 0 13 7 13 6 0 9 4 6 8 -3 5 7 21 21 36 14 15 26 33 27 40 2 16 67 82 77
79 7 -3 22 31 24 52 0 6 7 10 15 10 8 0 21 13 29 28 9 18 17 24 21 17 4 -7 12
1 20 19 7 17 16 28 21 25 5 -3 30 16 55 41 25 26 48 44 51 41 3 -3 23 13 44
35 22 23 39 36 39 29 0 -9 5 -8 18 3 10 10 27 17 37 17 10 0 16 3 12 6 -12 12
23 35 53 36 19 1 30 6 30 15 0 8 4 12 9 9 5 -3 12 1 15 10 4 10 13 13 25 9 10
-3 23 1 30 9 7 8 18 13 25 10 8 -3 16 1 19 9 3 8 16 14 29 13 13 -1 25 2 28 5
3 4 12 9 20 11 8 2 21 9 29 16 7 7 23 12 35 10 11 -1 27 1 34 5 7 5 12 3 12
-3 0 -6 11 -3 25 8 15 12 34 18 45 15 11 -3 20 0 20 6 0 7 20 11 50 11 28 0
50 5 50 10 0 6 4 10 9 10 6 0 13 -4 16 -10z"/>
</g>
</svg>
